<svg height="512pt" viewBox="0 -16 512 512" width="512pt" xmlns="http://www.w3.org/2000/svg"><path d="m482 122.578125v-107.578125c0-8.285156-6.714844-15-15-15h-422c-8.285156 0-15 6.714844-15 15v47.578125c-17.460938 6.195313-30 22.867187-30 42.421875v330c0 24.8125 20.1875 45 45 45h422c24.8125 0 45-20.1875 45-45v-270c0-19.554688-12.539062-36.226562-30-42.421875zm-30-92.578125v90h-189.785156l-46.820313-46.820312c-8.5-8.5-19.800781-13.179688-31.820312-13.179688h-123.574219v-30zm30 405c0 8.269531-6.730469 15-15 15h-422c-8.269531 0-15-6.730469-15-15v-330c0-8.269531 6.730469-15 15-15h138.574219c4.003906 0 7.773437 1.558594 10.605469 4.394531l51.214843 51.210938c2.8125 2.816406 6.625 4.394531 10.605469 4.394531h211c8.269531 0 15 6.730469 15 15zm0 0"/><path d="m437 180h-61c-8.285156 0-15 6.714844-15 15s6.714844 15 15 15h61c8.285156 0 15-6.714844 15-15s-6.714844-15-15-15zm0 0"/><path d="m256 300c-49.625 0-90 40.375-90 90v15c0 8.285156 6.714844 15 15 15h150c8.285156 0 15-6.714844 15-15v-15c0-49.625-40.375-90-90-90zm-60 90c0-33.085938 26.914062-60 60-60s60 26.914062 60 60zm0 0"/><path d="m316 240c0-33.085938-26.914062-60-60-60s-60 26.914062-60 60 26.914062 60 60 60 60-26.914062 60-60zm-60 30c-16.542969 0-30-13.457031-30-30s13.457031-30 30-30 30 13.457031 30 30-13.457031 30-30 30zm0 0"/></svg>