<svg id="Capa_1" enable-background="new 0 0 512 512" height="512" viewBox="0 0 512 512" width="512" xmlns="http://www.w3.org/2000/svg"><g><g><path d="m511.607 353.866c-.248-1.12-.612-2.214-1.089-3.264l-46.034-93.027c-3.091-6.245-9.456-10.198-16.424-10.198h-384.12c-6.968 0-13.334 3.952-16.424 10.198l-46.034 93.027c-.477 1.05-.841 2.144-1.089 3.264l19.009 9.637h467.702z" fill="#e5a32e"/><g><g><path d="m94.476 451.689c4.452 0 8.061-3.609 8.061-8.06v-409.862c0-6.425-5.206-11.634-11.63-11.639h-34.517c-11.601 0-21.006 9.405-21.006 21.006v391.128c0 9.625 7.802 17.427 17.427 17.427z" fill="#88a8d8"/><path d="m142.748 22.127h-57.245c6.847 0 12.397 5.55 12.397 12.397v399.738c0 7.946-5.324 14.637-12.596 16.734-.998.443-2.1.693-3.262.693h64.285c9.625 0 17.427-7.802 17.427-17.427v-391.129c.001-11.601-9.404-21.006-21.006-21.006z" fill="#7296d1"/></g><g><circle cx="96.611" cy="101.341" fill="#f7f4f7" r="31.592"/></g><path d="m128.203 101.341c0-17.016-13.454-30.883-30.303-31.56v63.119c16.849-.676 30.303-14.543 30.303-31.559z" fill="#edeaed"/></g><g><g><path d="m250.907 451.689c4.452 0 8.061-3.609 8.061-8.06v-409.862c0-6.425-5.206-11.634-11.63-11.639h-34.517c-11.601 0-21.006 9.405-21.006 21.006v391.128c0 9.625 7.802 17.427 17.427 17.427z" fill="#88a8d8"/><path d="m299.179 22.127h-57.245c6.847 0 12.397 5.55 12.397 12.397v399.738c0 7.946-5.324 14.637-12.596 16.734-.998.443-2.1.693-3.262.693h64.285c9.625 0 17.427-7.802 17.427-17.427v-391.129c0-11.601-9.404-21.006-21.006-21.006z" fill="#7296d1"/></g><g><circle cx="253.042" cy="101.341" fill="#f7f4f7" r="31.592"/></g><path d="m284.634 101.341c0-17.016-13.454-30.883-30.303-31.56v63.119c16.849-.676 30.303-14.543 30.303-31.559z" fill="#edeaed"/></g><g><g><g><g><g><path d="m127.033 252.866h-54.928c-4.267 0-7.726-3.459-7.726-7.726 0-4.268 3.459-7.726 7.726-7.726h54.928c4.267 0 7.726 3.459 7.726 7.726s-3.459 7.726-7.726 7.726z" fill="#c9e0fd"/></g></g><g><g><path d="m127.033 289.781h-54.928c-4.267 0-7.726-3.459-7.726-7.726s3.459-7.726 7.726-7.726h54.928c4.267 0 7.726 3.459 7.726 7.726s-3.459 7.726-7.726 7.726z" fill="#c9e0fd"/></g></g><g><g><path d="m127.033 326.695h-54.928c-4.267 0-7.726-3.459-7.726-7.726s3.459-7.726 7.726-7.726h54.928c4.267 0 7.726 3.459 7.726 7.726s-3.459 7.726-7.726 7.726z" fill="#c9e0fd"/></g></g></g></g></g><g><g><g><g><g><path d="m283.464 252.866h-54.927c-4.267 0-7.726-3.459-7.726-7.726 0-4.268 3.459-7.726 7.726-7.726h54.927c4.268 0 7.726 3.459 7.726 7.726s-3.459 7.726-7.726 7.726z" fill="#c9e0fd"/></g></g><g><g><path d="m283.464 289.781h-54.927c-4.267 0-7.726-3.459-7.726-7.726s3.459-7.726 7.726-7.726h54.927c4.268 0 7.726 3.459 7.726 7.726s-3.459 7.726-7.726 7.726z" fill="#c9e0fd"/></g></g><g><g><path d="m283.464 326.695h-54.927c-4.267 0-7.726-3.459-7.726-7.726s3.459-7.726 7.726-7.726h54.927c4.268 0 7.726 3.459 7.726 7.726s-3.459 7.726-7.726 7.726z" fill="#c9e0fd"/></g></g></g></g></g><g><g><path d="m407.338 451.689c4.452 0 8.061-3.609 8.061-8.06v-409.862c0-6.425-5.206-11.634-11.63-11.639h-34.517c-11.602 0-21.006 9.405-21.006 21.006v391.128c0 9.625 7.802 17.427 17.427 17.427z" fill="#88a8d8"/><path d="m455.61 22.127h-57.245c6.847 0 12.397 5.55 12.397 12.397v399.738c0 7.946-5.324 14.637-12.596 16.734-.998.443-2.1.693-3.262.693h64.285c9.625 0 17.427-7.802 17.427-17.427v-391.129c0-11.601-9.404-21.006-21.006-21.006z" fill="#7296d1"/></g><g><g><g><g><path d="m439.895 252.866h-54.928c-4.268 0-7.726-3.459-7.726-7.726 0-4.268 3.459-7.726 7.726-7.726h54.928c4.268 0 7.726 3.459 7.726 7.726s-3.459 7.726-7.726 7.726z" fill="#c9e0fd"/></g></g><g><g><path d="m439.895 289.781h-54.928c-4.268 0-7.726-3.459-7.726-7.726s3.459-7.726 7.726-7.726h54.928c4.268 0 7.726 3.459 7.726 7.726s-3.459 7.726-7.726 7.726z" fill="#c9e0fd"/></g></g><g><g><path d="m439.895 326.695h-54.928c-4.268 0-7.726-3.459-7.726-7.726s3.459-7.726 7.726-7.726h54.928c4.268 0 7.726 3.459 7.726 7.726s-3.459 7.726-7.726 7.726z" fill="#c9e0fd"/></g></g></g></g></g><g><g><g><g><path d="m.086 460.112s3.005 16.678 16.678 16.678h422.565c5.642 0 10.216-4.574 10.216-10.216v-112.708h-449.148c-.26 1.174-.397 2.375-.397 3.585z" fill="#efc984"/></g><g><path d="m511.603 353.866h-65.176v109.184c0 5.604-4.543 10.147-10.147 10.147h-419.715c-9.148 0-16.565-7.417-16.565-16.566v16.676c0 9.149 7.417 16.565 16.565 16.565h478.869c9.149 0 16.565-7.417 16.565-16.565v-115.856c.001-1.21-.136-2.411-.396-3.585z" fill="#e8ae4d"/><path d="m446.145 353.866h-.114c.041.187.079.155.114 0z" fill="#eac173"/></g></g></g><path d="m317.297 442.409h-122.594c-11.343 0-20.539-9.196-20.539-20.539 0-11.344 9.196-20.539 20.539-20.539h122.594c11.343 0 20.539 9.196 20.539 20.539 0 11.343-9.195 20.539-20.539 20.539z" fill="#e5a32e"/></g></g><g><circle cx="409.472" cy="101.341" fill="#f7f4f7" r="31.592"/></g><path d="m441.065 101.341c0-17.016-13.454-30.883-30.303-31.56v63.119c16.849-.676 30.303-14.543 30.303-31.559z" fill="#edeaed"/></g></svg>