<svg id="Outline" height="512" viewBox="0 0 512 512" width="512" xmlns="http://www.w3.org/2000/svg"><path d="m344 16h-240a40.045 40.045 0 0 0 -40 40v400a40.045 40.045 0 0 0 40 40h304a40.045 40.045 0 0 0 40-40v-336a8 8 0 0 0 -2.343-5.657l-96-96a8 8 0 0 0 -5.657-2.343zm88 440a24.028 24.028 0 0 1 -24 24h-304a24.028 24.028 0 0 1 -24-24v-400a24.028 24.028 0 0 1 24-24h232v56a40.045 40.045 0 0 0 40 40h56zm-80-412.687 68.687 68.687h-44.687a24.027 24.027 0 0 1 -24-24z"/><circle cx="224" cy="272" r="8"/><circle cx="256" cy="272" r="8"/><circle cx="288" cy="272" r="8"/><path d="m256 144a8 8 0 0 0 -8 8v32a8 8 0 0 0 16 0v-32a8 8 0 0 0 -8-8z"/><path d="m256 352a8 8 0 0 0 -8 8v32a8 8 0 0 0 16 0v-32a8 8 0 0 0 -8-8z"/><path d="m295.488 202.424a7.994 7.994 0 0 0 10.928-2.928l16-27.713a8 8 0 1 0 -13.856-8l-16 27.713a8 8 0 0 0 2.928 10.928z"/><path d="m216.512 341.576a8 8 0 0 0 -10.928 2.928l-16 27.713a8 8 0 1 0 13.856 8l16-27.713a8 8 0 0 0 -2.928-10.928z"/><path d="m306.527 344.441a8 8 0 0 0 -13.857 8l16 27.713a8 8 0 0 0 13.857-8z"/><path d="m176 272a8 8 0 0 0 -8-8h-32a8 8 0 0 0 0 16h32a8 8 0 0 0 8-8z"/><path d="m344 264a8 8 0 0 0 0 16h32a8 8 0 0 0 0-16z"/><path d="m174.541 306.845-27.713 16a8 8 0 1 0 8 13.856l27.713-16a8 8 0 1 0 -8-13.856z"/><path d="m333.467 238.229a7.964 7.964 0 0 0 3.992-1.074l27.713-16a8 8 0 1 0 -8-13.856l-27.713 16a8 8 0 0 0 4.008 14.93z"/><path d="m366.2 320.912-27.713-16a8 8 0 0 0 -8 13.857l27.713 16a8 8 0 0 0 8-13.857z"/></svg>