<svg id="Capa_1" enable-background="new 0 0 512 512" height="512" viewBox="0 0 512 512" width="512" xmlns="http://www.w3.org/2000/svg"><g><g><g><g><g><g><circle cx="256" cy="256" fill="#fe6a16" r="256"/></g></g></g></g></g><path d="m511.773 266.877-76.773-76.773-1.243.412-21.139-21.14-.54 1.395-68.722-68.722-22.637 8.506-50.557-50.555-75.81 95.817-117.352 253.682 84.49 84.49c29.24 11.622 61.129 18.011 94.51 18.011 137.741 0 250.074-108.783 255.773-245.123z" fill="#e53b00"/><g><g><path d="m365.377 183.539v-28.325l-14.788-3.594c-7.536-1.831-13.671-7.206-16.629-14.375-.031-.074-.061-.148-.092-.222-2.987-7.18-2.473-15.337 1.572-21.979l7.915-12.996-20.029-20.029-12.996 7.915c-6.642 4.045-14.799 4.559-21.979 1.572-.074-.031-.148-.061-.222-.092-7.169-2.958-12.543-9.093-14.375-16.629l-3.592-14.785h-28.325l-3.594 14.788c-1.831 7.536-7.206 13.671-14.375 16.629-.074.031-.148.061-.222.092-7.18 2.987-15.337 2.473-21.979-1.572l-12.996-7.915-20.028 20.028 7.915 12.996c4.045 6.642 4.559 14.798 1.572 21.979-.031.074-.061.148-.092.222-2.958 7.169-9.093 12.543-16.629 14.375l-14.788 3.594v28.325l14.788 3.594c7.536 1.831 13.671 7.206 16.629 14.375.031.074.061.148.092.222 2.987 7.18 2.473 15.337-1.572 21.979l-7.915 12.996 20.028 20.028 12.996-7.915c6.642-4.045 14.799-4.559 21.979-1.572.074.031.148.061.222.092 7.169 2.958 12.543 9.093 14.375 16.629l3.594 14.788h28.325l3.594-14.788c1.831-7.536 7.206-13.671 14.375-16.629.074-.03.148-.061.222-.092 7.18-2.987 15.337-2.473 21.979 1.572l12.996 7.915 20.029-20.028-7.915-12.996c-4.045-6.642-4.559-14.799-1.572-21.979.031-.074.061-.148.092-.222 2.958-7.169 9.093-12.543 16.629-14.375zm-109.377 29.668c-24.207 0-43.83-19.623-43.83-43.83s19.623-43.83 43.83-43.83 43.83 19.623 43.83 43.83-19.623 43.83-43.83 43.83z" fill="#636978"/></g></g><g><g><path d="m350.589 151.621c-7.536-1.831-13.671-7.206-16.629-14.375-.031-.074-.061-.148-.092-.222-2.987-7.18-2.473-15.337 1.572-21.979l7.915-12.996-20.029-20.028-12.996 7.915c-6.642 4.045-14.799 4.559-21.979 1.572-.074-.031-.148-.061-.222-.092-7.169-2.958-12.543-9.093-14.375-16.629l-3.592-14.787h-14.042v65.55c24.151.065 43.71 19.661 43.71 43.827s-19.679 43.762-43.83 43.827v65.55h14.162l3.594-14.788c1.831-7.536 7.206-13.671 14.375-16.629.074-.031.148-.061.222-.092 7.18-2.987 15.337-2.473 21.979 1.572l12.996 7.915 20.029-20.028-7.915-12.996c-4.045-6.642-4.559-14.799-1.572-21.979.031-.074.061-.147.092-.222 2.958-7.169 9.093-12.543 16.629-14.375l14.787-3.594v-28.324z" fill="#414952"/></g></g><g><path d="m435 409.499h-358v-219.394h163.876l15.124 32.376 16.587-32.376h162.413z" fill="#ffce00"/></g><g><path d="m435 190.104h-162.413l-16.587 32.142v187.253h179z" fill="#fdba12"/></g><g><path d="m234.686 388.131h177.931v-218.754h-112.567c-24.328 0-44.05 19.722-44.05 44.05z" fill="#e9edf5"/></g><g><path d="m256 388.131h-156.618v-218.754h112.568c24.328 0 44.05 19.722 44.05 44.05z" fill="#fff"/></g><g><g><path d="m121.122 291.593h112.072v31.276h-112.072z" fill="#dce1eb"/></g><g><path d="m121.122 234.362h112.072v31.276h-112.072z" fill="#dce1eb"/></g><g><path d="m278.805 291.593h112.072v31.276h-112.072z" fill="#bec3d2"/></g><g><path d="m278.805 234.362h112.072v31.276h-112.072z" fill="#bec3d2"/></g></g></g></svg>