<svg id="_x33_0" enable-background="new 0 0 64 64" height="512" viewBox="0 0 64 64" width="512" xmlns="http://www.w3.org/2000/svg"><g><g><g><path d="m58 62h-29.728c-2.209 0-4-1.791-4-4v-52c0-2.209 1.791-4 4-4h29.728c2.209 0 4 1.791 4 4v52c0 2.209-1.791 4-4 4z" fill="#969faa"/></g><g><path d="m39 2h8v6h-4-4z" fill="#e6e9ed"/></g><g><path d="m48 55v2c0 .55-.45 1-1 1h-6c-.55 0-1-.45-1-1v-2c0-.55.45-1 1-1h6c.55 0 1 .45 1 1z" fill="#e6e9ed"/></g><g><path d="m57 50h-28c-.552 0-1-.448-1-1v-40c0-.552.448-1 1-1h28c.552 0 1 .448 1 1v40c0 .552-.448 1-1 1z" fill="#69d6f4"/></g><g><path d="m40 18v2h-5-3v-8h8z" fill="#ff826e"/></g><g><path d="m2 24h12v17h-12z" fill="#fcd770"/></g><g><path d="m34 36c.55 0 1.05.22 1.41.59.37.36.59.86.59 1.41 0 1.1-.9 2-2 2h-2c.55 0 1.05.22 1.41.59.37.36.59.86.59 1.41 0 1.1-.9 2-2 2h-4-3.17c-.28 0-.56-.01-.83-.02-1.63-.06-3.23-.31-4.79-.74-1.82-.51-3.57-1.26-5.21-2.24v-17c2.87-2.3 6.36-3.67 10-3.94.47-.04.93-.06 1.4-.06h2.6 4 3c.55 0 1 .45 1 1 0 1.66-1.34 3-3 3h-6c-.55 0-1.05.22-1.41.59-.37.36-.59.86-.59 1.41 0 1.1.9 2 2 2h15c.55 0 1.05.22 1.41.59.37.36.59.86.59 1.41 0 1.1-.9 2-2 2h-6c.55 0 1.05.22 1.41.59.37.36.59.86.59 1.41 0 1.1-.9 2-2 2z" fill="#f0d0b4"/></g></g><g><path d="m58 1h-30c-2.757 0-5 2.243-5 5v13.168c-3.385.43-6.63 1.741-9.346 3.832h-12.654v19h12.727c2.84 1.655 6.011 2.643 9.273 2.915v13.085c0 2.757 2.243 5 5 5h30c2.757 0 5-2.243 5-5v-52c0-2.757-2.243-5-5-5zm-33.169 42c-3.448 0-6.832-.9-9.831-2.588v-15.905c2.985-2.258 6.656-3.507 10.403-3.507h9.597c0 1.103-.897 2-2 2h-6c-1.654 0-3 1.346-3 3s1.346 3 3 3h15c.552 0 1 .448 1 1s-.448 1-1 1h-16v2h10c.552 0 1 .448 1 1s-.448 1-1 1h-10v2h8c.552 0 1 .448 1 1s-.448 1-1 1h-8v2h6c.552 0 1 .448 1 1s-.448 1-1 1zm8.169-24v-6h6v6zm-6 8c-.552 0-1-.448-1-1s.448-1 1-1zm2 18h3c1.654 0 3-1.346 3-3 0-.395-.081-.77-.22-1.116 1.275-.346 2.22-1.501 2.22-2.884 0-.395-.081-.77-.22-1.116 1.275-.346 2.22-1.501 2.22-2.884 0-.352-.072-.686-.184-1h3.184c1.654 0 3-1.346 3-3s-1.346-3-3-3h-13v-2h4c2.206 0 4-1.794 4-4h4v-10h-10v8h-2v-10h28v40h-28zm15-38v-2h-2v2h-2v-4h6v4zm-19-1c0-1.654 1.346-3 3-3h10v4h-9c-1.103 0-2 .897-2 2v10h-1.597c-.135 0-.269.014-.403.017zm-22 19h10v15h-10zm58 33c0 1.654-1.346 3-3 3h-30c-1.654 0-3-1.346-3-3v-13h2v4c0 1.103.897 2 2 2h28c1.103 0 2-.897 2-2v-40c0-1.103-.897-2-2-2h-9v-4h10c1.654 0 3 1.346 3 3z"/><path d="m47 53h-6c-1.103 0-2 .897-2 2v2c0 1.103.897 2 2 2h6c1.103 0 2-.897 2-2v-2c0-1.103-.897-2-2-2zm-6 4v-2h6l.002 2z"/><path d="m49 30c0-2.757-2.243-5-5-5h-1v2h1c1.654 0 3 1.346 3 3s-1.346 3-3 3h-1v2h1c2.757 0 5-2.243 5-5z"/><path d="m44 21h-1v2h1c3.859 0 7 3.141 7 7s-3.141 7-7 7h-1v2h1c4.963 0 9-4.037 9-9s-4.037-9-9-9z"/><path d="m43 45h2v2h-2z"/><path d="m47 45h2v2h-2z"/><path d="m39 45h2v2h-2z"/><path d="m43 17h12v2h-12z"/><path d="m43 13h2v2h-2z"/><path d="m47 13h8v2h-8z"/></g></g></svg>