<svg height="428pt" viewBox="0 -22 428 427" width="428pt" xmlns="http://www.w3.org/2000/svg"><path d="m363 6.5c0-3.3125-2.6875-6-6-6s-6 2.6875-6 6v36.933594h12zm0 0"/><path d="m76 6.5c0-3.3125-2.6875-6-6-6s-6 2.6875-6 6v36.933594h12zm0 0"/><path d="m220 6.5c0-3.3125-2.6875-6-6-6s-6 2.6875-6 6v36.933594h12zm0 0"/><path d="m394 43.433594h-31v22.753906c0 3.3125-2.6875 6-6 6s-6-2.6875-6-6v-22.753906h-131v22.753906c0 3.3125-2.6875 6-6 6s-6-2.6875-6-6v-22.753906h-132v22.753906c0 3.3125-2.6875 6-6 6s-6-2.6875-6-6v-22.753906h-30c-9.011719-.015625-17.65625 3.550781-24.035156 9.914062-6.378906 6.367188-9.96093775 15.007813-9.964844 24.015625v273c-.00390625 18.792969 15.210938 34.035157 34 34.070313h360c18.789062-.035156 34.003906-15.277344 34-34.070313v-273c-.003906-9.007812-3.585938-17.648437-9.964844-24.015625-6.378906-6.363281-15.023437-9.929687-24.035156-9.914062zm-316.429688 171.945312c16.03125.007813 29.460938 12.125 31.117188 28.070313 1.652344 15.941406-9.003906 30.558593-24.6875 33.859375v12.054687c0 3.3125-2.6875 6-6 6s-6-2.6875-6-6v-11.898437c-14.882812-2.710938-25.703125-15.664063-25.726562-30.792969 0-3.3125 2.6875-6 6-6s6 2.6875 6 6c0 10.660156 8.640624 19.300781 19.300781 19.300781 10.660156 0 19.300781-8.640625 19.300781-19.300781 0-10.65625-8.640625-19.300781-19.300781-19.300781-16.1875-.011719-29.695313-12.371094-31.144531-28.492188-1.445313-16.125 9.640624-30.691406 25.570312-33.589844v-8.925781c0-3.3125 2.6875-6 6-6s6 2.6875 6 6v9.085938c14.480469 3.058593 24.851562 15.832031 24.871094 30.632812 0 3.3125-2.6875 6-6 6-3.316406 0-6-2.6875-6-6 0-10.660156-8.640625-19.300781-19.300782-19.300781-10.660156 0-19.300781 8.640625-19.300781 19.300781 0 10.65625 8.640625 19.300781 19.300781 19.300781zm110.691407 96.054688h-27.160157c-3.316406 0-6-2.6875-6-6 0-3.316406 2.683594-6 6-6h27.15625c3.316407 0 6 2.683594 6 6 0 3.3125-2.683593 6-6 6zm0-83h-27.160157c-3.316406 0-6-2.6875-6-6 0-3.316406 2.683594-6 6-6h27.15625c3.316407 0 6 2.683594 6 6 0 3.3125-2.683593 6-6 6zm0-83h-27.160157c-3.316406 0-6-2.6875-6-6 0-3.316406 2.683594-6 6-6h27.15625c3.316407 0 6 2.683594 6 6 0 3.3125-2.683593 6-6 6zm84.03125 166h-27.160157c-3.3125 0-6-2.6875-6-6 0-3.316406 2.6875-6 6-6h27.160157c3.316406 0 6 2.683594 6 6 0 3.3125-2.683594 6-6 6zm0-83h-27.160157c-3.3125 0-6-2.6875-6-6 0-3.316406 2.6875-6 6-6h27.160157c3.316406 0 6 2.683594 6 6 0 3.3125-2.683594 6-6 6zm0-83h-27.160157c-3.3125 0-6-2.6875-6-6 0-3.316406 2.6875-6 6-6h27.160157c3.316406 0 6 2.683594 6 6 0 3.3125-2.683594 6-6 6zm84.636719 83h-27.160157c-3.3125 0-6-2.6875-6-6 0-3.316406 2.6875-6 6-6h27.160157c3.316406 0 6 2.683594 6 6 0 3.3125-2.683594 6-6 6zm0-83h-27.160157c-3.3125 0-6-2.6875-6-6 0-3.316406 2.6875-6 6-6h27.160157c3.316406 0 6 2.683594 6 6 0 3.3125-2.683594 6-6 6zm0 0"/></svg>