<svg height="512" viewBox="0 0 58 58" width="512" xmlns="http://www.w3.org/2000/svg"><g id="Page-1" fill="none" fill-rule="evenodd"><g id="050---Money-Analytics" fill="rgb(0,0,0)" fill-rule="nonzero"><path id="Shape" d="m10 47v6c0 2.209139 1.790861 4 4 4s4-1.790861 4-4v-15c0-.5522847-.4477153-1-1-1h-6c-.5522847 0-1 .4477153-1 1z"/><path id="Shape" d="m15 22.846c1.1128409-.2524624 1.9267959-1.2072317 2-2.346-.0732041-1.1387683-.8871591-2.0935376-2-2.346z"/><path id="Shape" d="m11 13.5c.0732041 1.1387683.8871591 2.0935376 2 2.346v-4.692c-1.1128409.2524624-1.9267959 1.2072317-2 2.346z"/><path id="Shape" d="m14 3c-7.7319865 0-14 6.2680135-14 14s6.2680135 14 14 14 14-6.2680135 14-14-6.2680135-14-14-14zm5 17.5c-.0965423 2.2415987-1.7783513 4.0953727-4 4.409v.091c0 .5522847-.4477153 1-1 1s-1-.4477153-1-1v-.091c-2.2216487-.3136273-3.90345774-2.1674013-4-4.409 0-.5522847.44771525-1 1-1 .5522847 0 1 .4477153 1 1 .0732041 1.1387683.8871591 2.0935376 2 2.346v-4.937c-2.2216487-.3136273-3.90345774-2.1674013-4-4.409.09654226-2.2415987 1.7783513-4.09537268 4-4.409v-.091c0-.55228475.4477153-1 1-1s1 .44771525 1 1v.091c2.2216487.31362732 3.9034577 2.1674013 4 4.409 0 .5522847-.4477153 1-1 1s-1-.4477153-1-1c-.0732041-1.1387683-.8871591-2.0935376-2-2.346v4.937c2.2216487.3136273 3.9034577 2.1674013 4 4.409z"/><path id="Shape" d="m45 27.9v29.1c0 .5522847-.4477153 1-1 1h-6c-.5522847 0-1-.4477153-1-1v-17.23c3.5528012-3.2812688 6.2919255-7.3454444 8-11.87z"/><rect id="Rectangle-path" height="36" rx="1" width="8" x="50" y="22"/><path id="Shape" d="m32 43.53v13.47c0 .5522847-.4477153 1-1 1h-6c-.5522847 0-1-.4477153-1-1v-10.06c2.8184699-.7410992 5.513583-1.8898911 8-3.41z"/><path id="Shape" d="m22 37.12c8.9018366-2.6478178 15.0038989-10.8327174 15-20.12v-4h-5c-.390353.0000257-.7450391-.2270897-.9083471-.5816401-.1633081-.3545504-.1053824-.7717173.1483471-1.0683599l9-11c.1899882-.22216639.4676758-.35007693.76-.35007693s.5700118.12791054.76.35007693l9 11c.2537295.2966426.3116552.7138095.1483471 1.0683599-.163308.3545504-.5179941.5816658-.9083471.5816401h-5v4c.0098115 13.7047508-9.5885321 25.5399258-23 28.36z"/><path id="Shape" d="m17 32.71v2.29h-6v-2.29c1.9813105.3866727 4.0186895.3866727 6 0z"/></g></g></svg>