<?xml version="1.0"?>
<svg xmlns="http://www.w3.org/2000/svg" id="Capa_1" enable-background="new 0 0 512 512" height="512px" viewBox="0 0 512 512" width="512px" class=""><g><g><path d="m450.085 273.527c.621-6.282.915-11.978.915-17.527 0-5.55-.294-11.245-.915-17.529l47.484-53.548c4.284-4.831 4.996-11.861 1.767-17.452l-45-77.942c-3.228-5.591-9.67-8.487-15.998-7.195l-70.178 14.361c-9.779-6.934-19.957-12.873-30.395-17.734l-22.514-68.635c-2.019-6.161-7.768-10.326-14.251-10.326h-90c-6.479 0-12.225 4.159-14.249 10.313l-22.578 68.647c-10.38 4.841-20.541 10.78-30.336 17.733l-70.176-14.36c-6.328-1.297-12.77 1.604-15.998 7.195l-45 77.942c-3.229 5.591-2.517 12.622 1.767 17.452l47.484 53.548c-.62 6.284-.914 11.98-.914 17.53s.294 11.245.915 17.528l-47.485 53.548c-4.284 4.831-4.996 11.861-1.767 17.452l45 77.942c3.228 5.592 9.674 8.489 15.997 7.195l70.179-14.359c9.775 6.931 19.953 12.87 30.389 17.731l22.221 67.729c2.804 10.821 13.122 11.234 14.504 11.234h90.047c2.764 0 11.253-1.203 14.249-10.313l22.578-68.649c10.385-4.844 20.543-10.781 30.336-17.731l70.176 14.359c6.325 1.293 12.769-1.604 15.997-7.195l45-77.942c3.229-5.591 2.517-12.621-1.767-17.452zm-247.452-5.046 45 30c5.038 3.358 11.603 3.358 16.641 0l45-30c4.173-2.782 6.68-7.466 6.68-12.481v-86.187c27.901 19.354 45 51.198 45 86.187 0 57.897-47.103 105-105 105s-105-47.103-105-105c0-34.988 17.099-66.832 45-86.187v86.187c-.001 5.015 2.505 9.699 6.679 12.481zm23.32 213.519v-94.365c9.652 2.199 19.692 3.365 30 3.365s20.348-1.166 30-3.365v94.365zm207.809-83.893-61.592-12.603c-5.069-2.635-11.336-2.198-16.039 1.405-11.605 8.89-23.811 16.052-36.278 21.285-1.433.602-2.74 1.422-3.9 2.407v-33.693c44.413-22.129 75-68.01 75-120.909 0-27.369-8.182-53.744-23.66-76.275-15.099-21.979-36.087-38.876-60.697-48.868-4.625-1.877-9.879-1.331-14.02 1.456-4.14 2.788-6.623 7.452-6.623 12.443v103.217l-30 20-30-20v-103.217c0-4.991-2.482-9.655-6.623-12.443-4.14-2.788-9.395-3.332-14.02-1.456-24.61 9.992-45.598 26.89-60.697 48.868-15.479 22.531-23.66 48.907-23.66 76.275 0 52.898 30.587 98.78 75 120.909v33.572c-1.122-.929-2.374-1.711-3.746-2.286-12.556-5.271-24.782-12.432-36.339-21.285-4.702-3.603-10.969-4.04-16.038-1.405l-61.592 12.603-34.189-59.217 41.889-47.237c4.674-3.095 7.336-8.645 6.593-14.421-1.045-8.114-1.531-14.86-1.531-21.232s.486-13.12 1.531-21.236c.743-5.778-1.92-11.328-6.596-14.423l-41.886-47.234 34.188-59.217 61.592 12.604c5.069 2.635 11.337 2.197 16.04-1.405 11.612-8.897 23.817-16.058 36.276-21.286 4.007-1.681 7.088-5.017 8.445-9.145l21.267-64.658h68.277l21.206 64.648c1.356 4.133 4.438 7.474 8.449 9.156 12.555 5.268 24.782 12.43 36.342 21.286 4.703 3.602 10.969 4.042 16.04 1.405l61.592-12.604 34.188 59.217-41.884 47.233c-4.677 3.095-7.34 8.646-6.597 14.424 1.044 8.115 1.53 14.863 1.53 21.235s-.486 13.118-1.531 21.232c-.743 5.777 1.918 11.327 6.594 14.422l41.888 47.237z" data-original="#000000" class="active-path" data-old_color="#000000" fill="#FFFFFF"/></g></g> </svg>
